<svg width="22" height="23" viewBox="0 0 22 23" fill="none" xmlns="http://www.w3.org/2000/svg">
<path d="M20.905 16.7937V19.7937C20.9061 20.0722 20.849 20.3479 20.7375 20.6031C20.6259 20.8582 20.4623 21.0873 20.257 21.2756C20.0518 21.4639 19.8095 21.6072 19.5457 21.6964C19.2819 21.7857 19.0023 21.8188 18.725 21.7937C15.6478 21.4594 12.692 20.4079 10.095 18.7237C7.67879 17.1884 5.6303 15.1399 4.09496 12.7237C2.40494 10.1149 1.35321 7.14472 1.02496 4.05372C0.999973 3.77719 1.03284 3.49848 1.12146 3.23535C1.21009 2.97221 1.35253 2.73041 1.53973 2.52534C1.72692 2.32028 1.95477 2.15643 2.20875 2.04425C2.46274 1.93206 2.7373 1.87399 3.01496 1.87372H6.01496C6.50027 1.86895 6.97075 2.0408 7.33872 2.35726C7.70669 2.67371 7.94704 3.11317 8.01496 3.59372C8.14159 4.55379 8.37641 5.49645 8.71496 6.40372C8.84951 6.76165 8.87862 7.15064 8.79887 7.5246C8.71911 7.89857 8.53383 8.24183 8.26496 8.51372L6.99496 9.78372C8.41852 12.2873 10.4914 14.3602 12.995 15.7837L14.265 14.5137C14.5369 14.2449 14.8801 14.0596 15.2541 13.9798C15.628 13.9001 16.017 13.9292 16.375 14.0637C17.2822 14.4023 18.2249 14.6371 19.185 14.7637C19.6707 14.8323 20.1144 15.0769 20.4315 15.4512C20.7486 15.8255 20.9171 16.3033 20.905 16.7937Z" stroke="white" stroke-width="2" stroke-linecap="round" stroke-linejoin="round"/>
</svg>
